<svg xmlns="http://www.w3.org/2000/svg"><defs><style>.cls-1{font-size:43px;fill:#44c0c2;font-family:Lobster1.4}</style></defs><symbol id="icon-arrow-next" viewBox="0 0 32 32"><path d="M21.698 15.286l-9.002-8.999a1.014 1.014 0 0 0-1.431 0 1.009 1.009 0 0 0 0 1.428L19.553 16l-8.287 8.285a1.01 1.01 0 0 0 0 1.429 1.014 1.014 0 0 0 1.431 0l9.002-8.999a1.02 1.02 0 0 0-.001-1.429z" fill="#49cbcd"/></symbol><symbol id="icon-arrow-prev" viewBox="0 0 25 32"><path d="M11.262 16.714l9.002 8.999a1.014 1.014 0 0 0 1.431 0 1.009 1.009 0 0 0 0-1.428L13.407 16l8.287-8.285a1.01 1.01 0 0 0 0-1.429 1.014 1.014 0 0 0-1.431 0l-9.002 8.999a1.02 1.02 0 0 0 .001 1.429z" fill="#49cbcd"/></symbol><symbol id="icon-fb" viewBox="0 0 32 32"><path d="M16 0C7.163 0 0 7.163 0 16c0 8.836 7.163 16 16 16s16-7.164 16-16c0-8.837-7.163-16-16-16z" fill="#3b5997"/><path d="M13.69 24.903h3.679v-8.904h2.454l.325-3.068h-2.779l.004-1.536c0-.8.076-1.229 1.224-1.229h1.534V7.097h-2.455c-2.949 0-3.986 1.489-3.986 3.992v1.842h-1.838V16h1.838v8.903z" fill="#FFF"/></symbol><symbol id="icon-gl" viewBox="0 0 32 32"><path d="M16-.005c-8.837 0-16 7.163-16 16 0 8.836 7.163 16 16 16s16-7.164 16-16c0-8.837-7.163-16-16-16z" fill="#e44c41"/><g fill="#FFF"><path d="M18.209 7.177h-5.435c-2.486 0-4.827 1.745-4.827 3.926 0 2.229 1.695 3.962 4.224 3.962.176 0 .347-.04.515-.052-.166.313-.28.65-.28 1.017 0 .62.332 1.114.753 1.524-.316 0-.625.004-.961.004-3.08.001-5.45 1.961-5.45 3.995 0 2.003 2.599 3.258 5.679 3.258 3.512 0 5.451-1.994 5.451-3.997 0-1.606-.474-2.568-1.939-3.607-.502-.354-1.46-1.217-1.46-1.725 0-.594.169-.887 1.065-1.587.916-.716 1.566-1.57 1.566-2.743 0-1.394-.6-3.095-1.766-3.095h1.984l.881-.88zm-1.824 13.29c.042.187.068.378.068.572 0 1.619-1.045 2.884-4.038 2.884-2.129 0-3.666-1.347-3.666-2.966 0-1.586 1.907-2.908 4.037-2.884.495.005.959.086 1.379.22 1.156.805 1.985 1.259 2.22 2.174zm-3.41-6.038c-1.429-.041-2.788-1.598-3.034-3.474-.246-1.878.712-3.314 2.141-3.272 1.428.044 2.788 1.55 3.034 3.426.246 1.877-.712 3.362-2.141 3.32zM22.618 14.224v-2.645h-1.764v2.645h-2.645v1.764h2.645v2.645h1.764v-2.645h2.645v-1.764z"/></g></symbol><symbol id="icon-logo" viewBox="0 0 120 37"><text id="Author" class="cls-1" y="32">Author</text></symbol><symbol id="icon-plus" viewBox="0 0 24 24"><path clip-rule="evenodd" d="M22.5 14H14v8.5a.5.5 0 0 1-.5.5h-4a.5.5 0 0 1-.5-.5V14H.5a.5.5 0 0 1-.5-.5v-4A.5.5 0 0 1 .5 9H9V.5a.5.5 0 0 1 .5-.5h4a.5.5 0 0 1 .5.5V9h8.5a.5.5 0 0 1 .5.5v4a.5.5 0 0 1-.5.5z"/></symbol><symbol id="icon-tv" viewBox="0 0 32 32"><path d="M16 0C7.163 0 0 7.163 0 16c0 8.836 7.163 16 16 16s16-7.164 16-16c0-8.837-7.163-16-16-16z" fill="#3ec2f3"/><path d="M18.226 8.886c-1.59.579-2.595 2.071-2.481 3.704l.038.63-.636-.077c-2.315-.296-4.338-1.299-6.056-2.984l-.84-.836-.215.617c-.458 1.376-.165 2.83.789 3.808.509.54.394.617-.483.296-.305-.103-.573-.18-.598-.141-.089.09.216 1.26.458 1.724.331.644 1.005 1.273 1.743 1.647l.624.296-.739.011c-.712 0-.738.013-.661.284.254.836 1.259 1.724 2.379 2.11l.789.27-.687.412a7.122 7.122 0 0 1-3.41.951c-.573.013-1.044.064-1.044.103 0 .128 1.553.848 2.455 1.132 2.71.836 5.929.475 8.346-.952 1.718-1.016 3.435-3.036 4.237-4.992.433-1.041.865-2.945.865-3.858 0-.592.038-.669.75-1.376.42-.412.814-.862.891-.99.128-.245.114-.245-.534-.026-1.081.386-1.234.335-.699-.244.394-.412.865-1.158.865-1.376 0-.038-.191.026-.407.141-.229.129-.738.322-1.12.437l-.687.219-.623-.426c-.344-.231-.826-.489-1.081-.566-.65-.18-1.642-.154-2.228.052z" fill="#FFF"/></symbol></svg>